<svg width="160" height="83" viewBox="0 0 160 83" fill="none" xmlns="http://www.w3.org/2000/svg">
<g clip-path="url(#clip0_472_1030)">
<path d="M33.8699 69.5782C33.7383 69.5349 33.5661 69.4779 33.3662 69.4186C33.1973 69.3673 33.0104 69.316 32.8138 69.2659C32.8122 69.2647 32.8106 69.2647 32.809 69.2647C32.6627 69.2271 32.5133 69.1906 32.3622 69.1599V69.161C32.0259 69.0846 31.683 69.0117 31.3224 68.949C30.2777 68.7655 29.1989 68.6743 28.0876 68.6743C26.5831 68.6743 25.2216 68.8362 24.003 69.1599C22.7829 69.4836 21.7431 69.9475 20.8852 70.5527C20.0258 71.1579 19.3677 71.8896 18.9096 72.7479C18.4498 73.6061 18.2207 74.5693 18.2207 75.6384C18.2207 76.7508 18.4547 77.7321 18.9242 78.5824C19.3921 79.4338 20.0501 80.1485 20.8998 80.7252C21.7479 81.3019 22.7683 81.7419 23.9592 82.0439C25.1485 82.346 26.4775 82.4976 27.9397 82.4976C29.0136 82.4976 30.1022 82.4098 31.2054 82.2343C31.657 82.1613 32.0681 82.0781 32.4564 81.9892C33.0917 81.8775 34.1201 81.4911 34.1201 81.4911V77.9202C33.7318 78.1926 33.2996 78.4217 32.8967 78.6075C32.7732 78.6645 32.6514 78.7181 32.5344 78.7671C32.4824 78.7887 32.4288 78.8104 32.3768 78.8309C31.8585 79.0372 31.3094 79.2127 30.7212 79.3529C29.9024 79.5501 29.0429 79.6493 28.1461 79.6493C26.4872 79.6493 25.1988 79.2834 24.2809 78.5516C23.3629 77.8199 22.9047 76.8203 22.9047 75.554C22.9047 74.3025 23.3775 73.3178 24.3247 72.5997C25.2719 71.8817 26.536 71.5238 28.1168 71.5238C28.9357 71.5238 29.7415 71.6081 30.5311 71.7768C31.0884 71.8953 31.6164 72.0469 32.1185 72.2293C32.1867 72.2532 32.2549 72.2783 32.3216 72.3045C32.4629 72.3581 32.6043 72.4139 32.7424 72.4732L32.744 72.4698C33.1989 72.6544 33.7448 72.8995 34.1234 73.1423V69.7115L34.1461 69.6659C34.0584 69.6352 33.9609 69.6078 33.8699 69.5782Z" fill="#21545F"/>
<path d="M11.5006 79.3155C11.0019 79.564 10.2252 79.6894 9.16919 79.6894H8.04489V79.6882H5.10417V76.6177H9.02296C10.0205 76.6177 10.8069 76.7316 11.3837 76.9585C11.9604 77.1864 12.2496 77.5842 12.2496 78.1529C12.2496 78.6795 11.9994 79.067 11.5006 79.3155ZM11.7184 72.9419C11.7184 73.44 11.4747 73.8275 10.9856 74.1044C10.4966 74.3826 9.76383 74.5205 8.78738 74.5205H5.10417V71.4499H8.04489V71.4488H9.02134C10.8199 71.4488 11.7184 71.9468 11.7184 72.9419ZM15.8581 76.2997C15.1221 75.7628 14.1635 75.4175 12.9856 75.2625C14.0466 75.0505 14.8817 74.7108 15.4893 74.2446C16.0986 73.7796 16.404 73.1653 16.404 72.4028C16.404 71.9081 16.3 71.4533 16.0937 71.0362C15.8874 70.6201 15.5202 70.2565 14.9889 69.9454C14.4592 69.6354 13.746 69.3915 12.8524 69.2148C11.9588 69.0381 10.8248 68.9492 9.45026 68.9492H7.53148V68.9504H5.35112V68.9492H0.537109V82.1878H5.00506V82.1889H8.04489V82.1878H9.50875C10.9824 82.1878 12.1993 82.0863 13.1627 81.8812C14.1246 81.676 14.8865 81.4013 15.4454 81.0548C16.006 80.7095 16.3991 80.3003 16.625 79.8261C16.8508 79.3531 16.9629 78.8562 16.9629 78.333C16.9629 77.5147 16.5957 76.8365 15.8581 76.2997Z" fill="#21545F"/>
<path d="M54.7621 74.1227H47.4136V68.9937H42.7588V82.1843H47.4136V76.9505H54.7621V82.1843H59.4169V68.9937H54.7621V74.1227Z" fill="#21545F"/>
<path d="M75.4591 77.3197C75.2447 77.8337 74.9278 78.2726 74.5087 78.6384C74.0879 79.0043 73.5761 79.2892 72.9717 79.4933C72.3657 79.6973 71.6833 79.7999 70.9213 79.7999C70.1415 79.7999 69.4445 79.6973 68.8287 79.4933C68.2145 79.2892 67.6963 78.9975 67.2771 78.6179C66.8563 78.2372 66.5346 77.787 66.3104 77.2673C66.0862 76.7464 65.9741 76.1697 65.9741 75.536C65.9741 74.2982 66.3933 73.2963 67.2332 72.5292C68.0716 71.7621 69.2722 71.378 70.8336 71.378C71.6151 71.378 72.3121 71.4806 72.9278 71.6846C73.542 71.8887 74.0586 72.177 74.4794 72.5497C74.8986 72.9224 75.2203 73.3692 75.4445 73.8901C75.6687 74.411 75.7808 74.9877 75.7808 75.6203C75.7808 76.2403 75.6736 76.8068 75.4591 77.3197ZM77.7142 70.44C76.8548 69.8553 75.8442 69.4165 74.6841 69.1201C73.5225 68.8249 72.2585 68.6768 70.8921 68.6768C69.5257 68.6768 68.2584 68.8432 67.087 69.1737C65.9156 69.5042 64.9001 69.9715 64.0423 70.5768C63.1828 71.182 62.5086 71.9137 62.0212 72.772C61.5337 73.6302 61.29 74.5797 61.29 75.6203C61.29 76.7327 61.5337 77.7175 62.0212 78.5757C62.5086 79.434 63.178 80.1509 64.0277 80.7276C64.8758 81.3055 65.8863 81.7443 67.0578 82.0475C68.2275 82.3496 69.4867 82.5011 70.8336 82.5011C72.2 82.5011 73.4689 82.3347 74.6403 82.0042C75.8117 81.6748 76.8304 81.2029 77.6996 80.5909C78.5672 79.9788 79.2463 79.2437 79.7337 78.3854C80.2211 77.5271 80.4665 76.5777 80.4665 75.536C80.4665 74.4247 80.2211 73.4433 79.7337 72.5919C79.2463 71.7405 78.5721 71.0236 77.7142 70.44Z" fill="#21545F"/>
<path d="M93.7269 76.7818C93.7269 77.8087 93.4491 78.5473 92.8934 78.9975C92.3361 79.4477 91.5027 79.6722 90.3897 79.6722C89.1598 79.6722 88.2614 79.4192 87.696 78.9132C87.1289 78.406 86.8479 77.6537 86.8479 76.6553V68.9937H82.2207V77.0986C82.2207 78.0264 82.4157 78.8288 82.8072 79.5036C83.1972 80.1795 83.7479 80.7391 84.4612 81.1813C85.1728 81.6247 86.0225 81.9552 87.0087 82.1741C87.9933 82.3918 89.0818 82.5012 90.2728 82.5012C91.5027 82.5012 92.614 82.3849 93.6099 82.1524C94.6042 81.9199 95.454 81.5654 96.1575 81.0867C96.8593 80.608 97.4004 80.0142 97.7822 79.303C98.1623 78.5929 98.3524 77.7597 98.3524 76.8023V68.9937H93.7269V76.7818Z" fill="#21545F"/>
<path d="M112.522 75.4833C111.976 75.1813 111.361 74.9306 110.678 74.7345C109.994 74.5373 109.302 74.3686 108.6 74.2273C108.053 74.1145 107.546 74.0062 107.078 73.9002C106.608 73.7953 106.199 73.6825 105.848 73.5628C105.497 73.4431 105.222 73.3029 105.027 73.1411C104.832 72.9793 104.735 72.7923 104.735 72.5815C104.735 71.8361 105.536 71.4633 107.136 71.4633C108.053 71.4633 109.039 71.5682 110.093 71.7791C110.833 71.9272 111.536 72.113 112.209 72.3296C112.652 72.4766 113.422 72.7479 113.932 73.0191V69.9349L113.957 69.8585C113.673 69.7446 113.369 69.6408 113.058 69.5417C112.958 69.5086 112.862 69.479 112.774 69.4539C112.207 69.2852 111.604 69.1371 110.956 69.0151C109.833 68.8031 108.551 68.6982 107.107 68.6982C104.842 68.6982 103.105 69.0709 101.895 69.8164C100.685 70.5629 100.08 71.5477 100.08 72.7718C100.08 73.4329 100.261 73.9925 100.623 74.4496C100.984 74.9066 101.451 75.2862 102.028 75.5893C102.603 75.8914 103.237 76.141 103.931 76.3382C104.623 76.5354 105.302 76.6972 105.965 76.8237C106.569 76.9502 107.107 77.0665 107.575 77.1714C108.045 77.2774 108.433 77.3902 108.746 77.5099C109.058 77.6284 109.297 77.7663 109.463 77.9213C109.629 78.0752 109.711 78.2655 109.711 78.4912C109.711 78.8993 109.453 79.2081 108.936 79.419C108.42 79.6299 107.75 79.7359 106.932 79.7359C105.799 79.7359 104.701 79.6196 103.638 79.3871C102.572 79.1557 101.583 78.8639 100.667 78.5117L100.665 78.514C100.352 78.3921 100.028 78.2553 99.7715 78.1185V81.2939C99.7715 81.2939 100.636 81.637 101.078 81.7407V81.735C101.642 81.8957 102.257 82.0405 102.935 82.1625C104.174 82.3881 105.477 82.501 106.844 82.501C108.053 82.501 109.122 82.395 110.049 82.1841C110.975 81.9733 111.757 81.6769 112.391 81.2974C113.024 80.9178 113.508 80.4676 113.84 79.9467C114.171 79.427 114.339 78.8491 114.339 78.2165C114.339 77.5828 114.171 77.0448 113.84 76.6015C113.508 76.1581 113.07 75.7865 112.522 75.4833Z" fill="#21545F"/>
<path d="M116.21 82.1843H120.866V68.9937H116.21V82.1843Z" fill="#21545F"/>
<path d="M136.205 77.5625L128.595 68.9937H123.559V82.1843H127.921V73.6371L135.62 82.1843H140.568V68.9937H136.205V77.5625Z" fill="#21545F"/>
<path d="M157.71 69.3105C157.152 69.1703 156.572 69.054 155.966 68.9617C155.362 68.8705 154.748 68.801 154.122 68.7508C153.499 68.7018 152.893 68.6768 152.308 68.6768C150.805 68.6768 149.448 68.8352 148.238 69.152C147.027 69.4689 145.994 69.9294 145.135 70.5346C144.277 71.1398 143.612 71.8716 143.144 72.7287C142.676 73.5881 142.442 74.558 142.442 75.642C142.442 76.7247 142.681 77.6924 143.159 78.5438C143.637 79.3952 144.304 80.1133 145.164 80.6969C146.023 81.2804 147.057 81.7272 148.267 82.0361C149.477 82.3461 150.815 82.5011 152.278 82.5011C153.625 82.5011 154.923 82.3951 156.173 82.1843C157.421 81.9734 158.543 81.6714 159.539 81.277V74.7552H150.815V77.4143H155.323V79.3565C154.933 79.4693 154.478 79.5639 153.962 79.6414C153.445 79.7189 152.922 79.7566 152.395 79.7566C150.639 79.7566 149.312 79.3873 148.413 78.6487C147.516 77.9101 147.068 76.8798 147.068 75.5576C147.068 74.3198 147.55 73.3373 148.516 72.6136C149.482 71.8887 150.795 71.5262 152.454 71.5262C153.763 71.5262 155.073 71.7302 156.381 72.1371L156.379 72.1383C157.503 72.4996 158.469 72.9327 159.027 73.204V69.7538C158.634 69.5852 158.2 69.4347 157.71 69.3105Z" fill="#21545F"/>
<path d="M76.4206 20.8585L69.0315 1.51074C66.6545 1.95412 64.3214 2.54452 62.0615 3.2831C57.6845 4.7158 53.5821 6.69788 49.9688 9.23275L70.9242 23.9336C73.5384 22.4713 74.4028 21.9869 76.4206 20.8585Z" fill="#388F82"/>
<path d="M89.1507 23.9346L110.108 9.23259C108.327 7.98225 106.42 6.87438 104.426 5.89303C100.29 3.85625 95.7551 2.39733 91.0435 1.51514L83.6543 20.8584L89.1507 23.9346Z" fill="#7FCFDD"/>
<path d="M80.037 18.8342L83.6536 20.8584L91.0428 1.51522C86.2385 0.614798 81.2572 0.311616 76.3311 0.612518C73.8729 0.76297 71.4293 1.06159 69.0312 1.51067L76.4204 20.8584C77.7478 20.1153 80.037 18.8342 80.037 18.8342Z" fill="#21545F"/>
<path d="M121.11 22.6069L94.9668 27.5205V33.1339L121.116 38.0487C121.755 36.3664 122.181 34.6521 122.395 32.9276C122.824 29.4718 122.392 25.9773 121.11 22.6069Z" fill="#4BA993"/>
<path d="M94.9672 41.8214C94.9672 41.8214 88.8047 41.8214 84.4277 41.8214L91.0452 59.1449C93.4221 58.7004 95.7552 58.11 98.0136 57.3714C102.392 55.9387 106.495 53.9566 110.108 51.4217L94.9672 40.8013V41.8214Z" fill="#21545F"/>
<path d="M94.9668 40.8011L110.107 51.4216C113.721 48.8867 116.546 46.0087 118.587 42.9382C119.641 41.3527 120.483 39.716 121.117 38.0485L94.9668 33.1338V40.8011Z" fill="#388F82"/>
<path d="M94.9668 27.1901V27.5207L121.11 22.6071C119.851 19.3017 117.771 16.1206 114.868 13.2187C113.469 11.8202 111.89 10.4832 110.108 9.23291L89.1504 23.9349L94.9668 27.1901Z" fill="#3A71B3"/>
<path d="M65.1067 33.1338L38.9668 38.0474C40.2243 41.3527 42.3056 44.5339 45.2089 47.4358C46.6078 48.8354 48.187 50.1724 49.9677 51.4227L65.1067 40.8022V33.1338Z" fill="#569EC9"/>
<path d="M65.1064 27.1901C65.1064 27.1901 68.1576 25.4828 70.9245 23.9338L49.969 9.23291C46.354 11.7678 43.5286 14.6457 41.488 17.7174C40.4352 19.3017 39.5936 20.9385 38.96 22.606L65.1064 27.5207V27.1901Z" fill="#4BA993"/>
<path d="M65.106 27.5207L38.9596 22.606C38.3211 24.2883 37.8938 26.0025 37.6809 27.7281C37.252 31.1828 37.6842 34.6774 38.9661 38.0477L65.106 33.1341V27.5207Z" fill="#3A71B3"/>
<path d="M65.1058 41.8212V40.8022L49.9668 51.4227C51.7491 52.6719 53.6565 53.7798 55.65 54.7611C59.7849 56.7979 64.3211 58.258 69.0328 59.1402L75.6469 41.8212H65.1058Z" fill="#7FCFDD"/>
<path d="M80.0374 41.8213H75.6474L69.0332 59.1403C73.8375 60.0395 78.8188 60.3427 83.7433 60.0418C86.2031 59.8914 88.6467 59.5927 91.0448 59.1448L84.4273 41.8213C82.6044 41.8213 80.0374 41.8213 80.0374 41.8213Z" fill="#AADCEA"/>
</g>
<defs>
<clipPath id="clip0_472_1030">
<rect width="159" height="82" fill="white" transform="translate(0.537109 0.500977)"/>
</clipPath>
</defs>
</svg>
